<?xml version="1.0" encoding="utf-8"?>
<!-- Generator: Adobe Illustrator 17.1.0, SVG Export Plug-In . SVG Version: 6.00 Build 0)  -->
<!DOCTYPE svg PUBLIC "-//W3C//DTD SVG 1.1//EN" "http://www.w3.org/Graphics/SVG/1.1/DTD/svg11.dtd">
<svg version="1.1" id="Layer_1" xmlns="http://www.w3.org/2000/svg" xmlns:xlink="http://www.w3.org/1999/xlink" x="0px" y="0px"
	 viewBox="0 0 286.3 129.7" enable-background="new 0 0 286.3 129.7" xml:space="preserve">
<path fill="#428774" d="M40.5,118.1c0,6.3-5.1,11.4-11.4,11.4l0,0c-6.3,0-11.4-5.1-11.4-11.4V11.4C17.8,5.1,22.9,0,29.2,0l0,0
	c6.3,0,11.4,5.1,11.4,11.4V118.1z"/>
<path fill="#428774" d="M237.8,65.1c0,3.8-3.1,6.9-6.9,6.9H54.8c-3.8,0-6.9-3.1-6.9-6.9l0,0c0-3.8,3.1-6.9,6.9-6.9h176.1
	C234.7,58.2,237.8,61.3,237.8,65.1L237.8,65.1z"/>
<path fill="#428774" d="M10.4,90.8c0,2.9-2.3,5.2-5.2,5.2l0,0C2.3,96,0,93.6,0,90.8v-52c0-2.9,2.3-5.2,5.2-5.2l0,0
	c2.9,0,5.2,2.3,5.2,5.2V90.8z"/>
<path fill="#428774" d="M245.8,11.6c0-6.3,5.1-11.4,11.4-11.4l0,0c6.3,0,11.4,5.1,11.4,11.4v106.7c0,6.3-5.1,11.4-11.4,11.4l0,0
	c-6.3,0-11.4-5.1-11.4-11.4V11.6z"/>
<path fill="#428774" d="M275.9,39c0-2.9,2.3-5.2,5.2-5.2l0,0c2.9,0,5.2,2.3,5.2,5.2v52c0,2.9-2.3,5.2-5.2,5.2l0,0
	c-2.9,0-5.2-2.3-5.2-5.2V39z"/>
</svg>
