<?xml version="1.0" encoding="utf-8"?>
<!-- Generator: Adobe Illustrator 17.1.0, SVG Export Plug-In . SVG Version: 6.00 Build 0)  -->
<!DOCTYPE svg PUBLIC "-//W3C//DTD SVG 1.1//EN" "http://www.w3.org/Graphics/SVG/1.1/DTD/svg11.dtd">
<svg version="1.1" xmlns="http://www.w3.org/2000/svg" xmlns:xlink="http://www.w3.org/1999/xlink" x="0px" y="0px"
	 viewBox="0 0 300 300" enable-background="new 0 0 300 300" xml:space="preserve">
<g id="Layer_1">
</g>
<g id="Layer_2">
	<path fill="#c99065" d="M145.1,300c-3.1,0-6-1.5-7.7-4.1L49.8,165.8c-10.7-17-16.2-36.3-16.2-55.9C33.5,50.6,83.5,2.3,145,2.3
		c61.5,0,111.5,48.3,111.5,107.6c0,19.6-5.5,38.9-16,55.6l-87.6,130.4C151.1,298.5,148.2,300,145.1,300L145.1,300z M145,20.9
		c-51.2,0-92.9,39.9-92.9,89c0,16.2,4.6,32,13.2,45.8l79.7,118.4l79.8-118.7c8.5-13.5,13-29.3,13-45.4
		C237.9,60.8,196.2,20.9,145,20.9z"/>
	<path fill="#c99065" d="M145,160.7c-29.1,0-52.8-23-52.8-51.2c0-28.2,23.7-51.2,52.8-51.2s52.8,23,52.8,51.2
		C197.8,137.7,174.1,160.7,145,160.7z M145,76.9c-18.9,0-34.2,14.6-34.2,32.6c0,18,15.4,32.6,34.2,32.6c18.9,0,34.2-14.6,34.2-32.6
		C179.2,91.6,163.9,76.9,145,76.9z"/>
</g>
</svg>
