<?xml version="1.0" encoding="utf-8"?>
<!-- Generator: Adobe Illustrator 17.1.0, SVG Export Plug-In . SVG Version: 6.00 Build 0)  -->
<!DOCTYPE svg PUBLIC "-//W3C//DTD SVG 1.1//EN" "http://www.w3.org/Graphics/SVG/1.1/DTD/svg11.dtd">
<svg version="1.1" xmlns="http://www.w3.org/2000/svg" xmlns:xlink="http://www.w3.org/1999/xlink" x="0px" y="0px"
	 viewBox="0 0 752.7 315.8" enable-background="new 0 0 752.7 315.8" xml:space="preserve">
<g id="Layer_1" display="none">
	
		<image display="inline" overflow="visible" width="1300" height="1045" xlink:href="8210EEEB.jpg"  transform="matrix(0.7692 0 0 0.7692 -20.1136 -207.6731)">
	</image>
</g>
<g id="Layer_2">
	<g>
		<path fill="#4c7389" d="M185.4,53.8c-3.1,0.1-3.3,2.4-3.3,2.4h6.9C189.1,53.6,185.4,53.8,185.4,53.8z"/>
		<path fill="#4c7389" d="M748.6,224l-21-8.2c0,0,0-47.3,0-49.5s-2.3-2.6-2.3-2.6l-0.1-40.8l-1.9-28.2l-1.9,28.8v5.8h-4.7v-17.7
			l-0.7-1l-0.2-15.2l-1.5-1.4l0.1-12.5h-0.8l-5.1-72.8l-5,73h-0.8v12.5l-1.5,1.3v15.7l-0.6,0.4v17.5h-4.1l-2.3-34.8l-2.3,29.5
			c0,0,0,35.8,0,39.8c-1.3,0.6-2.3,2.5-2.3,2.5v38.3h-53l-0.7,3.1l-6-6H528.9l-8.7,12.7v16.1h-9.1c0,0,7.6-92.5-84.5-102.9
			c-4.5-0.5-9-0.5-13.5-0.1c-90.1,9.1-88.1,103.2-88.1,103.2h-17.8v-25.3h1.5v-1.3c0,0-1,0-2,0c0.2-4.7-3.3-5.8-3.3-5.8v-6h-1.2
			l-1.5-21.7l-1.5,21.8h-1.2c0,0,0,1.5,0,6.2c-3.2,2.3-3,5.3-3,5.3h-1.5v1.8h1.8l-0.2,17.7l-15.5-13.7l-62.8-4.2
			c0,0-2.4-99.3-2.4-101.4c0-2.1,1.6-2.5,4.5-4.1c-2.6,0.2-5.3-0.7-5.3-0.7v-4.6H213L212.6,77l-0.4,17.8h-0.9c0,0,0,1.1,0,3.9
			c-9.6,0.3-11.3-4.8-11.4-7.8c4.2-2.6,1.3-6.3,1.3-6.3v-4.6c-3.2,0-3.4-2.8-3.4-2.8v-5.5h-0.9V77l-1.2,0.1l-0.2-24.5
			c0,0,1.7-1.3,5.6-5c-4.3-0.4-5.8-3.7-6.8-7.8c-1.4,1-2.6,3.8-2.6,3.8l-4.8-5.3c0,0,0.1-2.3,0.1-4.3c0,0,3.8-1.6,3.8-4.2
			c-0.3-2.9-4.8-6.8-4.8-6.8l-0.1,0v-2.5c0,0,1.2,0.1,0.1-4.1c0-4.3,0.1-7.8,0.1-7.8s6.6-1.8,7-5.5c1.7,0,2.3,0,2.3,0V0.9l-1.3,0.7
			L192.6,0l-1.5,1.7l-1.3-0.9v2.1h2.5c0,0-1.6,4.4-6.4,4.8V6.4h1.5l0.5-2.1l-1.3,0.4l-0.8-0.9l-1.2,0.9l-1.5-0.7v2.3h2.3v1.6
			c0,0-5.5-0.8-6.4-4.6c1.8,0,1.4-0.1,1.4-0.1l0.4-1.8l-1.4,0.4l-0.8-1.6l-0.8,1.5l-1.8-1.3v2.7l2.3,0.2c0,0,0.8,4,6.8,5.3
			c-0.1,5.3,0,6.9,0,6.9s-1.5,3.9-0.5,5.1c0,1.1,0,2,0,2.4l-0.1,0c0,0-4.8,4.2-4.8,6.8c0,2.6,3.6,4.5,3.6,4.5v4.4
			c-0.7,0.8-0.7,0.8-5.1,5.2c0-0.1-0.8-2.4-2.4-4c0,6.9-6.5,8.2-6.5,8.2l5.7,4.4v25.3h-1.3v-6.2h-1.1c0,0,0,3.5,0,6.3
			c0,2.7-3.3,2.3-3.3,2.3v4.4c-1.9,4.3,1.6,6.5,1.6,6.5v3c-2.2,4.4-12,5.3-12,5.3l-0.1-4.4l-0.5-0.3l-0.2-17.5l-0.3,17.5l-0.5,0.3
			l-0.2,4c-0.5,1.3-5.8,1.5-5.8,1.5l4.8,2.8l-2.2,101.2c0,0-112.8,8.1-114.5,8.1c-0.3-1.6-1.2-2.8-2.1-4.1c-1.5,1.8-1.8,3.4-1.8,3.4
			l0,7.6l-2.3,1.9h-3.1v-15.7h-2.3v-1.5c5.5-3.7-0.5-7.2-0.5-7.2l-0.7-16.2c0,0-0.3,9.2-0.3,16c-4.6,4.6,0,7.3,0,7.3v1.5h-2.2
			l-0.3,15.7l-6.8,7.3H0l0,87.3l752.7,0V224H748.6z M182.2,56.1c0,0,0.2-2.3,3.3-2.4c0,0,3.6-0.2,3.6,2.4H182.2z M445.5,212.3
			c-1.9,0-3.5-1.6-3.5-3.5s1.6-3.5,3.5-3.5s3.5,1.6,3.5,3.5S447.4,212.3,445.5,212.3z M445.5,200.3c-1.9,0-3.5-1.6-3.5-3.5
			s1.6-3.5,3.5-3.5s3.5,1.6,3.5,3.5S447.4,200.3,445.5,200.3z M458.5,212.3c-1.9,0-3.5-1.6-3.5-3.5s1.6-3.5,3.5-3.5s3.5,1.6,3.5,3.5
			S460.4,212.3,458.5,212.3z M458.5,200.3c-1.9,0-3.5-1.6-3.5-3.5s1.6-3.5,3.5-3.5s3.5,1.6,3.5,3.5S460.4,200.3,458.5,200.3z
			 M471.4,212.3c-1.9,0-3.5-1.6-3.5-3.5s1.6-3.5,3.5-3.5s3.5,1.6,3.5,3.5S473.3,212.3,471.4,212.3z M471.4,200.3
			c-1.9,0-3.5-1.6-3.5-3.5s1.6-3.5,3.5-3.5s3.5,1.6,3.5,3.5S473.3,200.3,471.4,200.3z M484.4,212.3c-1.9,0-3.5-1.6-3.5-3.5
			s1.6-3.5,3.5-3.5s3.5,1.6,3.5,3.5S486.3,212.3,484.4,212.3z M484.4,200.3c-1.9,0-3.5-1.6-3.5-3.5s1.6-3.5,3.5-3.5s3.5,1.6,3.5,3.5
			S486.3,200.3,484.4,200.3z"/>
	</g>
</g>
</svg>
